<?xml version="1.0" encoding="utf-8"?>
<!-- Generator: Adobe Illustrator 27.6.1, SVG Export Plug-In . SVG Version: 6.00 Build 0)  -->
<svg version="1.1" id="Layer_1" xmlns="http://www.w3.org/2000/svg" xmlns:xlink="http://www.w3.org/1999/xlink" x="0px" y="0px"
	 viewBox="0 0 500 500" style="enable-background:new 0 0 500 500;" xml:space="preserve">
<style type="text/css">
	.st0{fill:none;stroke:#000000;stroke-width:10;stroke-miterlimit:10;}
	.st1{stroke:#000000;stroke-width:5;stroke-miterlimit:10;}
	.st2{display:none;fill:none;stroke:#000000;stroke-width:5;stroke-miterlimit:10;}
	.st3{fill:#ED1C24;}
</style>
<circle class="st0" cx="248.86" cy="248.86" r="200"/>
<path class="st1" d="M275,249.97c-0.24,14.3-11.71,26.05-25,25c-13.76-1.08-25-11.19-25-25c0-13.81,11.19-25,25-25
	S275.23,236.16,275,249.97z"/>
<path class="st2" d="M329.41,266.8"/>
<path class="st2" d="M250.74,66.27"/>
<path class="st2" d="M251.91,66.4"/>
<path class="st2" d="M165.74,263.82"/>
<path class="st2" d="M249.71,211.71"/>
<path class="st2" d="M329.41,266.8"/>
<path class="st3" d="M260.96,212.26h-21.93c-7.75,0-14.04-6.28-14.04-14.04V86.3c0-7.75,6.28-14.04,14.04-14.04h21.93
	c7.75,0,14.04,6.28,14.04,14.04v111.93C275,205.97,268.72,212.26,260.96,212.26z"/>
</svg>
